# xmcd
#
# Track frame offsets: 
#        150
#        26187
#        42311
#        60203
#        75780
#        98095
#        115056
#        138703
#        162397
#        166867
#        187693
#        227675
#        247855
#        268203
#        285297
#        305992
#        324981
#
# Disc length: 4613 seconds
#
# Revision: 2
# Processed by: cddbd v1.5.1PL0 Copyright (c) Steve Scherf et al.
# Submitted via: ExactAudioCopy v0.95a5
#
DISCID=d5120311
DTITLE=Sarah Brightman - Harem
DYEAR=2003
DGENRE=Musical
TTITLE0=Harem
TTITLE1=What a Wonderful World
TTITLE2=It's a Beautiful Day
TTITLE3=What You Never Know
TTITLE4=The Journey Home
TTITLE5=Free
TTITLE6=Mysterious Days
TTITLE7=The War Is Over
TTITLE8=Misere Mei
TTITLE9=Beautiful
TTITLE10=Arabian Nights: Scimitar Moon-Voyage-Promise-Hamesha-Alone
TTITLE11=Stranger in Paradise
TTITLE12=Until the End of Time
TTITLE13=Gu¨¦ri de Toi
TTITLE14=Winter in July
TTITLE15=Scarborough Fair
TTITLE16=Figlio Perduto
EXTD=
EXTT0=
EXTT1=
EXTT2=
EXTT3=
EXTT4=
EXTT5=
EXTT6=
EXTT7=
EXTT8=
EXTT9=
EXTT10=
EXTT11=
EXTT12=
EXTT13=
EXTT14=
EXTT15=
EXTT16=
PLAYORDER=
